<?xml version="1.0" standalone="no"?>
<!DOCTYPE svg PUBLIC "-//W3C//DTD SVG 20010904//EN"
 "http://www.w3.org/TR/2001/REC-SVG-20010904/DTD/svg10.dtd">
<svg version="1.0" xmlns="http://www.w3.org/2000/svg"
 width="248.000000pt" height="228.000000pt" viewBox="0 0 248.000000 228.000000"
 preserveAspectRatio="xMidYMid meet">
<metadata>
Created by potrace 1.16, written by Peter Selinger 2001-2019
</metadata>
<g transform="translate(0.000000,228.000000) scale(0.100000,-0.100000)"
fill="#000000" stroke="none">
<path d="M257 1941 c-76 -6 -96 -16 -97 -47 0 -31 29 -37 163 -30 155 8 144
15 177 -116 12 -46 67 -252 122 -458 55 -206 115 -433 134 -505 19 -71 42
-141 52 -155 30 -40 80 -62 131 -56 41 6 43 5 36 -17 -4 -12 -10 -46 -12 -75
-5 -49 -3 -54 30 -87 41 -41 76 -45 125 -15 58 36 84 123 57 191 -8 21 19 26
180 35 113 7 119 6 106 -10 -9 -10 -15 -39 -15 -68 0 -45 4 -54 33 -80 27 -24
39 -29 64 -24 65 13 102 74 94 152 l-5 51 51 7 c29 3 66 6 84 6 48 0 70 58 28
73 -7 3 -207 -10 -445 -29 -238 -18 -443 -31 -456 -28 -23 6 -45 47 -59 112
-5 26 -4 32 10 32 9 0 108 9 218 20 111 11 289 27 394 35 206 16 236 23 252
54 18 32 101 559 101 636 0 80 -15 110 -58 119 -15 4 -270 -29 -567 -73 -297
-44 -542 -78 -544 -76 -2 2 -23 78 -47 169 -49 186 -71 237 -109 254 -27 12
-91 13 -228 3z"/>
</g>
</svg>
