<?xml version="1.0" standalone="no"?>
<!DOCTYPE svg PUBLIC "-//W3C//DTD SVG 20010904//EN"
 "http://www.w3.org/TR/2001/REC-SVG-20010904/DTD/svg10.dtd">
<svg version="1.0" xmlns="http://www.w3.org/2000/svg"
 width="278.000000pt" height="225.000000pt" viewBox="0 0 278.000000 225.000000"
 preserveAspectRatio="xMidYMid meet">
<metadata>
Created by potrace 1.16, written by Peter Selinger 2001-2019
</metadata>
<g transform="translate(0.000000,225.000000) scale(0.100000,-0.100000)"
fill="#000000" stroke="none">
<path d="M498 1911 c-84 -7 -101 -16 -96 -52 l3 -24 142 3 142 3 14 -28 c8
-15 58 -192 111 -393 175 -667 214 -802 233 -829 26 -34 77 -52 132 -45 40 5
43 4 36 -13 -33 -78 -31 -124 9 -170 20 -23 32 -28 69 -28 49 0 86 25 113 77
16 32 18 101 4 129 -6 10 -7 19 -3 20 139 13 289 25 291 24 1 -1 -2 -14 -8
-29 -13 -35 -13 -92 1 -118 6 -11 26 -26 45 -34 29 -12 39 -12 67 0 58 24 89
96 68 157 -6 18 -10 34 -8 36 2 1 39 6 83 9 43 4 85 11 92 17 18 14 15 45 -5
55 -11 6 -183 -4 -453 -25 -292 -22 -442 -30 -456 -24 -35 15 -71 141 -41 141
7 0 98 9 202 19 105 11 282 27 395 36 113 9 216 22 230 28 14 7 30 23 37 37
15 32 93 501 100 602 6 86 -7 121 -53 138 -18 7 -163 -10 -542 -65 -284 -42
-530 -76 -547 -78 l-30 -2 -45 171 c-25 93 -55 186 -66 205 -35 59 -65 65
-266 50z"/>
</g>
</svg>
