<?xml version="1.0" standalone="no"?>
<!DOCTYPE svg PUBLIC "-//W3C//DTD SVG 20010904//EN"
 "http://www.w3.org/TR/2001/REC-SVG-20010904/DTD/svg10.dtd">
<svg version="1.0" xmlns="http://www.w3.org/2000/svg"
 width="419.000000pt" height="332.000000pt" viewBox="0 0 419.000000 332.000000"
 preserveAspectRatio="xMidYMid meet">
<metadata>
Created by potrace 1.16, written by Peter Selinger 2001-2019
</metadata>
<g transform="translate(0.000000,332.000000) scale(0.100000,-0.100000)"
fill="#000000" stroke="none">
<path d="M1187 2981 c-76 -6 -96 -16 -97 -47 0 -31 29 -37 163 -30 155 8 144
15 177 -116 12 -46 67 -252 122 -458 55 -206 115 -433 134 -505 19 -71 42
-141 52 -155 30 -40 80 -62 131 -56 41 6 43 5 36 -17 -4 -12 -10 -46 -12 -75
-5 -49 -3 -54 30 -87 41 -41 76 -45 125 -15 58 36 84 123 57 191 -8 21 19 26
180 35 113 7 119 6 106 -10 -9 -10 -15 -39 -15 -68 0 -45 4 -54 33 -80 27 -24
39 -29 64 -24 65 13 102 74 94 152 l-5 51 51 7 c29 3 66 6 84 6 48 0 70 58 28
73 -7 3 -207 -10 -445 -29 -238 -18 -443 -31 -456 -28 -23 6 -45 47 -59 112
-5 26 -4 32 10 32 9 0 108 9 218 20 111 11 289 27 394 35 206 16 236 23 252
54 18 32 101 559 101 636 0 80 -15 110 -58 119 -15 4 -270 -29 -567 -73 -297
-44 -541 -78 -543 -76 -2 2 -24 79 -49 171 -24 92 -52 183 -63 204 -31 60 -64
67 -273 51z"/>
<path d="M311 951 c-52 -9 -71 -31 -71 -83 0 -51 27 -78 81 -78 53 0 79 -15
79 -46 0 -33 -36 -46 -107 -38 -54 7 -55 6 -51 -17 3 -23 7 -24 84 -27 69 -2
84 0 107 18 23 18 27 29 27 69 0 61 -19 79 -96 89 -45 5 -60 11 -62 25 -7 37
18 50 85 44 62 -6 63 -6 63 18 0 21 -5 25 -27 25 -16 0 -37 2 -48 4 -11 2 -40
1 -64 -3z"/>
<path d="M846 950 c-24 -5 -49 -18 -63 -34 -20 -24 -23 -38 -23 -111 0 -74 3
-87 24 -112 21 -25 31 -28 97 -31 61 -2 80 1 107 18 l33 20 -3 107 c-3 100 -4
107 -28 123 -30 22 -91 30 -144 20z m95 -50 c16 -9 19 -22 19 -96 0 -83 0 -85
-27 -95 -18 -7 -41 -8 -63 -2 l-35 8 -3 85 c-2 71 0 87 14 97 21 16 68 17 95
3z"/>
<path d="M3090 949 c-71 -14 -84 -35 -88 -138 -4 -81 -2 -90 21 -116 21 -25
33 -29 90 -33 37 -2 82 -1 102 2 l35 7 0 74 0 75 -50 0 c-43 0 -50 -3 -50 -20
0 -13 7 -20 20 -20 16 0 20 -7 20 -35 0 -28 -4 -36 -23 -41 -13 -3 -39 -1 -58
3 l-34 9 -3 87 -3 87 28 11 c17 6 54 8 91 5 61 -6 62 -6 62 19 0 22 -4 25 -37
25 -21 0 -47 2 -58 4 -11 2 -40 0 -65 -5z"/>
<path d="M492 928 c2 -19 10 -24 46 -26 l42 -3 0 -120 0 -119 30 0 30 0 0 119
0 120 43 3 c34 2 42 7 42 23 0 19 -8 20 -118 23 -118 3 -118 3 -115 -20z"/>
<path d="M1080 806 l0 -146 30 0 c30 0 30 1 30 54 0 86 27 87 78 1 30 -50 36
-55 68 -55 19 0 34 2 34 5 0 3 -17 28 -37 56 -35 50 -36 52 -17 65 39 27 44
36 44 77 0 73 -13 81 -129 85 l-101 4 0 -146z"/>
<path d="M1370 805 l0 -145 105 0 105 0 0 25 c0 24 -2 25 -76 25 l-75 0 3 38
3 37 63 3 c53 3 62 6 62 22 0 16 -9 19 -62 22 -63 3 -63 3 -66 35 l-3 32 73 3
c67 3 73 5 76 26 3 22 2 22 -102 22 l-106 0 0 -145z"/>
<path d="M1730 806 l0 -146 30 0 29 0 3 103 3 102 35 -100 c31 -88 39 -100 61
-103 23 -3 27 4 59 100 l35 103 3 -102 3 -103 29 0 30 0 0 145 0 145 -45 0
-44 0 -31 -101 c-17 -55 -34 -98 -38 -94 -4 3 -21 48 -38 98 l-31 92 -46 3
-47 3 0 -145z"/>
<path d="M2137 812 c-26 -75 -47 -140 -47 -144 0 -5 13 -8 28 -8 25 0 30 6 41
40 12 40 12 40 62 40 50 0 51 -1 66 -40 14 -34 21 -40 45 -40 15 0 28 3 28 7
0 4 -21 69 -47 145 l-48 138 -40 0 -40 0 -48 -138z"/>
<path d="M2400 805 l0 -145 25 0 c25 0 25 0 25 95 0 52 4 95 9 95 4 0 37 -43
71 -95 59 -89 65 -95 96 -95 l34 0 0 145 0 145 -30 0 -29 0 -3 -97 -3 -96 -65
96 c-60 88 -68 96 -97 97 l-33 0 0 -145z"/>
<path d="M2747 813 c-26 -76 -47 -141 -47 -145 0 -5 13 -8 28 -8 25 0 30 6 41
40 12 40 12 40 62 40 50 0 51 -1 66 -40 14 -34 20 -40 46 -40 19 0 28 4 24 13
-2 6 -24 72 -48 145 l-43 132 -41 0 -40 0 -48 -137z"/>
<path d="M3310 805 l0 -146 108 3 c99 3 107 4 107 23 0 18 -8 20 -72 23 l-73
3 0 39 0 40 65 0 c58 0 65 2 65 20 0 18 -7 20 -65 20 l-65 0 0 35 0 34 68 3
c61 3 67 5 70 26 3 22 2 22 -102 22 l-106 0 0 -145z"/>
<path d="M3580 805 l0 -145 30 0 c28 0 29 1 32 57 2 34 8 58 15 61 7 2 30 -24
50 -57 34 -54 42 -61 71 -61 17 0 32 3 32 8 0 4 -15 30 -34 58 l-34 50 29 16
c26 16 29 22 29 72 0 75 -16 86 -132 86 l-88 0 0 -145z"/>
</g>
</svg>
