<?xml version="1.0" standalone="no"?>
<!DOCTYPE svg PUBLIC "-//W3C//DTD SVG 20010904//EN"
 "http://www.w3.org/TR/2001/REC-SVG-20010904/DTD/svg10.dtd">
<svg version="1.0" xmlns="http://www.w3.org/2000/svg"
 width="419.000000pt" height="332.000000pt" viewBox="0 0 419.000000 332.000000"
 preserveAspectRatio="xMidYMid meet">

<g transform="translate(0.000000,332.000000) scale(0.100000,-0.100000)"
fill="#000000" stroke="none">
<path d="M1212 2980 c-51 -4 -97 -11 -103 -17 -6 -6 -9 -21 -7 -34 l3 -24 142
3 c170 5 156 16 203 -168 34 -133 109 -419 210 -795 34 -126 69 -245 77 -263
21 -43 63 -64 130 -63 39 0 53 -3 49 -12 -25 -60 -29 -89 -17 -127 13 -43 57
-80 96 -80 31 0 83 36 105 72 22 36 27 107 10 138 -9 16 -7 20 12 24 35 7 273
25 277 20 2 -2 -2 -17 -9 -34 -17 -42 -7 -110 20 -132 32 -26 91 -23 123 6 36
33 53 95 38 137 -6 18 -9 34 -7 36 2 3 39 7 83 10 43 3 84 10 91 16 18 14 15
45 -5 55 -11 5 -190 -5 -461 -26 -434 -34 -444 -34 -462 -16 -15 16 -54 124
-47 131 5 4 399 42 615 58 211 16 239 22 262 49 20 25 112 587 107 658 -4 64
-22 93 -64 101 -15 3 -269 -31 -566 -74 -297 -44 -541 -78 -543 -77 -1 2 -21
75 -44 163 -76 290 -68 284 -318 265z"/>
<path d="M280 937 c-21 -10 -25 -21 -28 -64 -3 -44 0 -53 20 -67 12 -9 43 -16
68 -16 67 0 92 -36 53 -75 -14 -14 -28 -16 -81 -11 -62 7 -63 6 -60 -16 3 -21
9 -23 72 -26 38 -2 82 2 97 9 51 20 64 125 19 149 -10 6 -39 10 -64 10 -45 0
-76 18 -76 44 0 27 29 38 90 34 57 -3 60 -2 60 20 0 21 -4 22 -72 22 -40 0
-84 -6 -98 -13z"/>
<path d="M500 930 c0 -17 7 -20 40 -20 l40 0 0 -125 0 -125 30 0 29 0 3 123 3
122 43 3 c34 3 42 7 42 23 0 18 -8 19 -115 19 -108 0 -115 -1 -115 -20z"/>
<path d="M815 938 c-39 -21 -45 -39 -45 -131 0 -48 4 -97 10 -107 30 -57 208
-51 239 8 6 12 11 57 11 102 0 77 -2 83 -29 111 -27 26 -35 29 -98 29 -37 0
-77 -6 -88 -12z m139 -44 c12 -11 16 -35 16 -89 0 -85 -12 -105 -66 -105 -66
0 -74 11 -74 103 0 51 5 88 12 95 18 18 94 15 112 -4z"/>
<path d="M1090 805 l0 -145 30 0 30 0 0 60 c0 81 22 81 72 0 32 -52 41 -60 68
-60 16 0 30 3 30 6 0 3 -13 25 -30 48 -39 57 -39 64 -10 79 22 11 25 19 25 72
0 53 -3 61 -25 72 -14 7 -61 13 -107 13 l-83 0 0 -145z m148 96 c8 -5 12 -22
10 -42 -3 -33 -5 -34 -50 -37 l-48 -3 0 45 0 46 38 0 c20 0 43 -4 50 -9z"/>
<path d="M1380 805 l0 -146 103 3 c94 3 102 4 102 23 0 18 -8 21 -74 25 l-75
5 0 35 -1 35 68 3 c58 3 67 5 67 22 0 17 -9 19 -67 22 l-67 3 0 35 -1 35 73 3
c64 3 72 5 72 22 0 19 -7 20 -100 20 l-100 0 0 -145z"/>
<path d="M1740 805 l0 -145 25 0 25 0 0 105 c0 58 3 105 8 105 4 0 23 -48 42
-105 30 -91 37 -105 56 -105 19 0 27 14 54 98 18 53 36 101 41 106 5 6 9 -35
9 -97 l0 -107 25 0 25 0 0 146 0 145 -42 -3 -42 -3 -30 -97 c-16 -54 -33 -98
-37 -98 -4 0 -22 45 -40 100 l-33 100 -43 0 -43 0 0 -145z"/>
<path d="M2190 946 c0 -2 -22 -68 -50 -145 l-49 -141 29 0 c25 0 31 5 41 40
l12 41 55 -3 c53 -3 56 -4 67 -38 9 -27 18 -36 38 -38 17 -2 27 1 27 10 0 7
-21 72 -46 145 l-47 133 -38 0 c-22 0 -39 -2 -39 -4z m59 -97 c7 -23 15 -47
18 -55 4 -11 -5 -14 -36 -14 -23 0 -41 4 -41 8 0 18 32 102 39 102 4 0 13 -18
20 -41z"/>
<path d="M2410 805 l0 -145 25 0 c24 0 24 1 27 102 l3 101 68 -101 c60 -92 70
-102 97 -102 l30 0 0 145 0 145 -25 0 c-24 0 -24 -1 -27 -102 l-3 -103 -69
103 c-61 89 -73 102 -98 102 l-28 0 0 -145z"/>
<path d="M2790 918 c-6 -18 -29 -84 -50 -145 l-39 -113 29 0 c25 0 31 5 41 40
l12 41 55 -3 c53 -3 56 -4 67 -38 9 -27 18 -36 38 -38 15 -2 27 0 27 5 0 4
-21 70 -46 145 l-46 138 -38 0 c-34 0 -39 -4 -50 -32z m69 -72 c16 -64 15 -66
-24 -66 -19 0 -35 4 -35 8 0 19 32 102 40 102 4 0 13 -20 19 -44z"/>
<path d="M3064 940 c-42 -17 -54 -48 -54 -142 0 -101 12 -122 75 -134 40 -7
147 0 164 11 6 3 11 37 11 76 l0 69 -50 0 c-43 0 -50 -3 -50 -20 0 -14 7 -20
21 -20 17 0 20 -5 17 -37 -3 -36 -5 -38 -39 -41 -19 -2 -47 2 -62 7 -26 10
-27 13 -27 90 0 107 8 115 112 109 76 -5 79 -4 76 16 -3 19 -10 21 -88 23 -47
1 -95 -2 -106 -7z"/>
<path d="M3320 805 l0 -145 105 0 105 0 0 25 c0 24 -2 25 -75 25 l-75 0 0 40
0 40 65 0 c58 0 65 2 65 20 0 18 -7 20 -65 20 l-65 0 0 40 0 40 70 0 c63 0 70
2 70 20 0 19 -7 20 -100 20 l-100 0 0 -145z"/>
<path d="M3580 805 l0 -145 30 0 30 0 0 60 c0 53 2 60 19 60 13 0 32 -20 57
-60 33 -54 40 -60 71 -60 38 0 37 5 -11 69 -32 43 -32 53 -4 66 29 13 43 52
34 98 -8 45 -40 57 -147 57 l-79 0 0 -145z m151 95 c19 -11 24 -35 13 -64 -4
-12 -20 -16 -55 -16 l-49 0 0 38 c0 21 3 42 7 45 10 11 62 8 84 -3z"/>
</g>
</svg>
